<svg width="160" height="160" viewBox="0 0 160 160" fill="none" xmlns="http://www.w3.org/2000/svg">
<ellipse cx="79.8831" cy="80.0171" rx="79.232" ry="79.2517" fill="#74EB87"/>
<path d="M120.253 80.0174C120.253 102.319 102.178 120.397 79.8834 120.397C57.5883 120.397 39.5143 102.319 39.5143 80.0174C39.5143 57.7164 57.5883 39.6381 79.8834 39.6381C102.178 39.6381 120.253 57.7164 120.253 80.0174Z" stroke="white" stroke-width="1.48362"/>
<path opacity="0.5" d="M150.522 80.0175C150.522 119.04 118.896 150.674 79.8833 150.674C40.8706 150.674 9.24444 119.04 9.24444 80.0175C9.24444 40.9949 40.8706 9.36093 79.8833 9.36093C118.896 9.36093 150.522 40.9949 150.522 80.0175Z" stroke="white" stroke-width="0.74181"/>
<path fill-rule="evenodd" clip-rule="evenodd" d="M80.7543 64.8505C86.0109 64.8505 91.7707 65.601 93.8583 66.2256C95.1736 66.7488 96.0386 68.0246 96.0386 69.4418C96.0783 72.6998 96.0783 78.7082 96.0783 83.6858C96.0783 90.884 85.6203 97.9056 80.6881 97.9608H80.6307C75.7228 97.9608 65.1831 90.9127 65.1831 83.6858C65.1831 78.7082 65.1831 72.6998 65.2228 69.4418C65.2228 68.0246 66.0879 66.7488 67.4031 66.2256C69.5062 65.5943 75.3432 64.8394 80.6307 64.8505H80.7543ZM86.8296 74.4551C87.1386 74.475 87.4343 74.5456 87.7124 74.6825C88.4207 75.0357 88.8952 75.7641 88.9327 76.5565C88.9438 76.7949 88.9151 77.0333 88.8511 77.2629C88.7562 77.594 88.584 77.8876 88.359 78.1458C85.8388 80.7858 83.2568 83.3684 80.6175 85.8892C80.4387 86.046 80.2423 86.1806 80.0239 86.2777C79.4589 86.5249 78.8035 86.5249 78.2408 86.2777C78.0201 86.1806 77.8259 86.046 77.6449 85.8892C76.098 84.4103 74.5841 82.8983 73.1077 81.3509C72.8826 81.0904 72.7105 80.7991 72.6156 80.468C72.5428 80.2053 72.5163 79.9316 72.5406 79.6601C72.5671 79.3886 72.6421 79.1237 72.7635 78.8787C72.8694 78.6668 73.0106 78.4703 73.1784 78.3026C73.7389 77.7419 74.5797 77.5234 75.3432 77.7397C75.7074 77.8434 76.0251 78.0421 76.2988 78.3026L79.1323 81.1368C81.167 79.0994 83.1597 77.0179 85.2407 75.0269C85.318 74.9606 85.318 74.9606 85.3974 74.8966C85.7373 74.6538 86.108 74.5103 86.5251 74.4618C86.6266 74.4551 86.7281 74.4507 86.8296 74.4551Z" fill="white"/>
<path d="M22.8045 86.503C23.7674 86.3281 24.6311 86.3508 25.3956 86.5712C26.1601 86.7915 26.7876 87.1703 27.2781 87.7075C27.7686 88.2447 28.0846 88.9026 28.2259 89.6813C28.3673 90.46 28.3028 91.187 28.0325 91.8624C27.7622 92.5378 27.3079 93.1131 26.6696 93.5882C26.0314 94.0634 25.2308 94.3884 24.2679 94.5633C23.305 94.7382 22.4412 94.7155 21.6767 94.4952C20.9122 94.2748 20.2847 93.8961 19.7942 93.3589C19.3037 92.8217 18.9878 92.1637 18.8464 91.385C18.705 90.6064 18.7695 89.8793 19.0399 89.2039C19.3102 88.5285 19.7645 87.9532 20.4027 87.4781C21.041 87.003 21.8416 86.6779 22.8045 86.503ZM22.9987 87.573C22.2082 87.7166 21.565 87.97 21.0692 88.3333C20.5728 88.6937 20.2256 89.1236 20.0278 89.6231C19.8293 90.1197 19.7803 90.6444 19.8807 91.1972C19.981 91.75 20.2116 92.2254 20.5725 92.6234C20.9328 93.0185 21.4089 93.2989 22.0008 93.4646C22.5921 93.6274 23.2831 93.6369 24.0736 93.4933C24.8642 93.3498 25.5076 93.0978 26.004 92.7375C26.4998 92.3741 26.847 91.9442 27.0454 91.4477C27.2433 90.9481 27.2921 90.422 27.1917 89.8692C27.0913 89.3164 26.861 88.8424 26.5007 88.4473C26.1398 88.0493 25.6637 87.7689 25.0724 87.6062C24.4805 87.4404 23.7893 87.4294 22.9987 87.573Z" fill="white"/>
<path d="M29.2269 84.3414L26.2368 84.3752L26.2302 83.7953C26.0806 83.655 25.9192 83.5345 25.7459 83.4337C25.5725 83.3329 25.3677 83.2461 25.1312 83.1733C24.8917 83.0975 24.601 83.0343 24.2591 82.9838C23.9142 82.9333 23.4983 82.8896 23.0116 82.8529L20.2544 82.6484L20.2044 78.2263L26.1666 78.159L26.1545 77.0897L29.1447 77.0559L29.1567 78.1252L27.1633 78.1477L27.2214 83.2947L29.2149 83.2722L29.2269 84.3414ZM26.2165 82.581L26.1787 79.2282L21.2132 79.2843L21.2398 81.6403L22.9997 81.8017C23.7285 81.869 24.3653 81.9555 24.9102 82.0611C25.4552 82.1667 25.8906 82.34 26.2165 82.581Z" fill="white"/>
<path d="M27.7796 73.0872C27.6947 73.7097 27.4721 74.2358 27.1117 74.6653C26.7518 75.0918 26.2875 75.4004 25.7189 75.5911C25.1507 75.7788 24.5104 75.8241 23.7982 75.727C23.0799 75.629 22.4707 75.4133 21.9704 75.0798C21.4707 74.7433 21.1044 74.3214 20.8718 73.8141C20.6396 73.3038 20.5659 72.7373 20.6508 72.1148C20.7357 71.4922 20.9581 70.9677 21.318 70.5412C21.6784 70.1117 22.1442 69.8033 22.7154 69.6159C23.287 69.4256 23.9319 69.3794 24.6502 69.4774C25.3625 69.5746 25.967 69.7912 26.4638 70.1272C26.961 70.4603 27.3258 70.882 27.558 71.3923C27.7906 71.8997 27.8645 72.4646 27.7796 73.0872ZM26.8279 72.9574C26.8924 72.4845 26.8242 72.0788 26.6234 71.7405C26.4226 71.4021 26.1347 71.1326 25.7597 70.9321C25.3846 70.7315 24.9666 70.5998 24.5057 70.537C24.0449 70.4741 23.6054 70.4889 23.1874 70.5812C22.7693 70.6736 22.4168 70.8557 22.1298 71.1275C21.8427 71.3993 21.667 71.7717 21.6025 72.2446C21.538 72.7175 21.6077 73.1233 21.8115 73.4621C22.0153 73.8009 22.3062 74.0707 22.6842 74.2717C23.0623 74.4726 23.4817 74.6045 23.9426 74.6674C24.4035 74.7303 24.8415 74.7153 25.2565 74.6226C25.6715 74.5298 26.0211 74.3473 26.3051 74.0751C26.5892 73.8028 26.7634 73.4303 26.8279 72.9574Z" fill="white"/>
<path d="M20.6918 60.5092L21.4703 60.1698C21.6083 60.4303 21.6776 60.7053 21.6781 60.995C21.6787 61.2846 21.6386 61.6002 21.558 61.9417C21.4773 62.2832 21.3857 62.6624 21.2831 63.0793C21.1653 63.5484 21.1664 63.9656 21.2864 64.331C21.4064 64.6964 21.6396 65.0192 21.9857 65.2995C22.3319 65.5798 22.7853 65.8268 23.346 66.0406L23.3713 65.9536C23.0197 65.6057 22.8036 65.2028 22.723 64.7451C22.6425 64.2874 22.669 63.8295 22.8025 63.3712C22.9546 62.8492 23.2133 62.4149 23.5786 62.0683C23.9439 61.7217 24.4013 61.4963 24.9507 61.3922C25.5001 61.2881 26.1257 61.3383 26.8275 61.5429C27.5263 61.7467 28.0931 62.0472 28.5279 62.4446C28.9635 62.8391 29.2539 63.2998 29.3993 63.8267C29.5425 64.3499 29.5271 64.9102 29.353 65.5077C29.1789 66.1051 28.8857 66.5876 28.4735 66.9551C28.0583 67.3218 27.536 67.5486 26.9066 67.6357C26.2742 67.722 25.5463 67.645 24.7228 67.4049L24.0094 67.1969C22.5219 66.7632 21.4674 66.182 20.8461 65.4534C20.2255 64.7218 20.0506 63.8432 20.3211 62.8177C20.4143 62.4547 20.5048 62.1333 20.5926 61.8537C20.6804 61.5741 20.7387 61.3252 20.7677 61.1071C20.7966 60.889 20.7713 60.6897 20.6918 60.5092ZM28.4309 65.2388C28.5484 64.8357 28.5479 64.4595 28.4294 64.1103C28.3118 63.7582 28.0917 63.4502 27.7691 63.1862C27.4435 62.9214 27.0299 62.7158 26.5283 62.5696C26.0411 62.4275 25.6032 62.3864 25.2146 62.4461C24.8268 62.503 24.5003 62.6517 24.2352 62.8922C23.97 63.1327 23.7779 63.4574 23.6587 63.8663C23.5716 64.165 23.5442 64.4481 23.5764 64.7155C23.6086 64.9829 23.6988 65.2294 23.8469 65.4551C23.9951 65.6808 24.1977 65.8815 24.4549 66.0572C24.7128 66.2299 25.0237 66.3725 25.3873 66.4848C26.1355 66.7029 26.7854 66.702 27.3371 66.4822C27.8888 66.2623 28.2534 65.8478 28.4309 65.2388Z" fill="white"/>
<path d="M33.0987 61.7984L24.4007 57.8103L24.8311 56.8711L25.836 57.3318L25.8888 57.2165C25.8117 57.0947 25.717 56.9317 25.6047 56.7273C25.4908 56.5189 25.4214 56.2644 25.3964 55.9638C25.3698 55.6592 25.451 55.3009 25.6397 54.889C25.8839 54.3563 26.2323 53.9477 26.6848 53.6634C27.1374 53.3791 27.6603 53.235 28.2535 53.2311C28.8466 53.2273 29.4754 53.3777 30.1399 53.6823C30.8098 53.9895 31.3383 54.3697 31.7253 54.823C32.1095 55.275 32.3437 55.7645 32.4278 56.2916C32.5091 56.8174 32.4289 57.3439 32.1873 57.8712C32.001 58.2776 31.7846 58.5722 31.5381 58.7549C31.2888 58.9364 31.0475 59.0534 30.8141 59.1059C30.578 59.1571 30.3859 59.192 30.2378 59.2105L30.2001 59.2929L33.5442 60.8262L33.0987 61.7984ZM28.0016 58.3048C28.4793 58.5239 28.9328 58.6471 29.3622 58.6744C29.7888 58.7006 30.1667 58.6263 30.496 58.4515C30.8225 58.2756 31.0751 57.9926 31.2538 57.6027C31.44 57.1962 31.4884 56.808 31.3988 56.4379C31.3078 56.0638 31.1111 55.7244 30.8089 55.4197C30.5052 55.111 30.1282 54.8534 29.6779 54.6469C29.2331 54.443 28.8008 54.3278 28.3809 54.3015C27.9596 54.2711 27.5817 54.3454 27.2471 54.5244C26.9111 54.6993 26.6488 54.9927 26.46 55.4047C26.2788 55.8001 26.2267 56.1784 26.3038 56.5394C26.3781 56.8991 26.5623 57.2295 26.8563 57.5305C27.1476 57.8302 27.5293 58.0883 28.0016 58.3048Z" fill="white"/>
<path d="M35.7878 51.3227C35.423 51.8855 34.9842 52.2904 34.4713 52.5375C33.9576 52.7804 33.4049 52.8666 32.8134 52.7963C32.221 52.7217 31.6258 52.4906 31.0277 52.1027C30.4296 51.7149 29.9732 51.264 29.6583 50.7502C29.3426 50.2322 29.1841 49.6938 29.1828 49.1349C29.1806 48.5718 29.3504 48.0266 29.6922 47.4994C29.8893 47.1952 30.1347 46.9277 30.4283 46.6968C30.7219 46.466 31.0616 46.3028 31.4474 46.2074C31.8307 46.1103 32.2554 46.1103 32.7216 46.2074C33.1878 46.3045 33.6933 46.5297 34.2382 46.883L34.6183 47.1296L31.7003 51.6315L30.9248 51.1287L33.2513 47.5392C32.9219 47.3256 32.5852 47.2009 32.2413 47.1651C31.899 47.1267 31.5751 47.1795 31.2694 47.3233C30.9655 47.4646 30.7083 47.6975 30.498 48.022C30.2664 48.3794 30.1546 48.7462 30.1628 49.1223C30.17 49.4943 30.2691 49.8412 30.4601 50.163C30.651 50.4849 30.9074 50.7501 31.2292 50.9588L31.7462 51.2941C32.1872 51.5801 32.6102 51.7464 33.0155 51.7932C33.4198 51.8358 33.7905 51.7719 34.1276 51.6017C34.4622 51.4298 34.747 51.1626 34.9819 50.8001C35.1347 50.5644 35.2398 50.3301 35.2971 50.0973C35.3536 49.8602 35.3598 49.6285 35.3159 49.4019C35.2694 49.1738 35.1694 48.9559 35.016 48.7484L35.8212 48.0392C36.056 48.3211 36.2151 48.6421 36.2985 49.0022C36.3793 49.3607 36.3791 49.7386 36.2979 50.136C36.2141 50.5317 36.0441 50.9273 35.7878 51.3227Z" fill="white"/>
<path d="M38.5111 41.1152L39.2596 41.7734L36.7231 44.6597L35.9745 44.0015L38.5111 41.1152ZM33.8964 41.8364L39.1226 46.4316L38.4166 47.2349L33.1905 42.6396L33.8964 41.8364ZM36.8039 38.5281L42.03 43.1233L41.3241 43.9266L36.0979 39.3313L36.8039 38.5281Z" fill="white"/>
<path d="M46.2896 39.1312L42.1632 33.5273L46.5701 30.2808L50.6964 35.8847L49.8355 36.519L46.3002 31.7177L43.6152 33.6957L47.1505 38.497L46.2896 39.1312Z" fill="white"/>
<path d="M53.8393 36.9335L49.3591 28.4781L50.2719 27.9942L50.7895 28.9711L50.9016 28.9116C50.9144 28.7681 50.9383 28.581 50.9734 28.3505C51.0098 28.1158 51.1094 27.8716 51.2723 27.6177C51.4364 27.3597 51.7187 27.1246 52.119 26.9124C52.6368 26.6379 53.1617 26.5254 53.6939 26.5749C54.2261 26.6244 54.7288 26.828 55.202 27.1857C55.6753 27.5433 56.083 28.0451 56.4253 28.691C56.7703 29.3423 56.9587 29.9655 56.9903 30.5607C57.0205 31.1532 56.9087 31.6842 56.655 32.1538C56.3999 32.6206 56.0161 32.9899 55.5037 33.2616C55.1087 33.4709 54.7577 33.5732 54.4509 33.5684C54.1427 33.5608 53.88 33.5069 53.6628 33.4067C53.4441 33.3038 53.2704 33.2147 53.1417 33.1394L53.0616 33.1818L54.7841 36.4327L53.8393 36.9335ZM51.917 31.0604C52.1631 31.5248 52.4482 31.8984 52.7725 32.1813C53.0952 32.4614 53.4404 32.6323 53.8081 32.6938C54.1743 32.7526 54.5468 32.6816 54.9258 32.4807C55.3208 32.2713 55.5953 31.9925 55.7492 31.6442C55.9044 31.2919 55.9546 30.9029 55.9 30.4772C55.8466 30.0473 55.7039 29.6136 55.472 29.1759C55.2429 28.7435 54.9697 28.3892 54.6524 28.1129C54.3364 27.8326 53.9912 27.6618 53.6168 27.6004C53.2437 27.535 52.857 27.6084 52.4566 27.8206C52.0723 28.0243 51.801 28.2929 51.6427 28.6264C51.483 28.9573 51.4283 29.3315 51.4787 29.7492C51.5277 30.1643 51.6738 30.6013 51.917 31.0604Z" fill="white"/>
<path d="M61.5416 30.5725C61.1267 30.7218 60.722 30.7792 60.3275 30.7447C59.932 30.7073 59.5811 30.5752 59.2748 30.3484C58.9674 30.1187 58.7371 29.7907 58.5837 29.3644C58.4487 28.9892 58.4131 28.6585 58.477 28.3723C58.5399 28.0831 58.671 27.8273 58.8702 27.6047C59.0694 27.3821 59.3064 27.1844 59.5813 27.0116C59.858 26.8349 60.1413 26.6719 60.4311 26.5227C60.8106 26.3283 61.1193 26.1738 61.3574 26.0592C61.5973 25.9407 61.7623 25.8283 61.8524 25.722C61.9454 25.6147 61.9628 25.48 61.9045 25.318L61.8922 25.2839C61.7409 24.8633 61.5082 24.5779 61.1941 24.4277C60.8828 24.2765 60.4956 24.2843 60.0323 24.4511C59.552 24.624 59.2133 24.8647 59.0161 25.1733C58.819 25.4818 58.7079 25.7754 58.683 26.054L57.6053 26.0568C57.6327 25.5975 57.7486 25.2058 57.953 24.8818C58.1593 24.5539 58.4156 24.2851 58.7221 24.0752C59.0305 23.8615 59.3495 23.6953 59.6792 23.5766C59.8895 23.5009 60.1402 23.4395 60.4315 23.3924C60.7246 23.3415 61.0266 23.3467 61.3376 23.4081C61.6515 23.4685 61.9494 23.6228 62.2314 23.8712C62.5134 24.1197 62.748 24.5039 62.9351 25.024L64.4876 29.3385L63.4815 29.7007L63.1624 28.8139L63.1113 28.8323C63.0942 28.999 63.0352 29.192 62.9344 29.4113C62.8335 29.6306 62.6714 29.8447 62.448 30.0535C62.2246 30.2624 61.9225 30.4353 61.5416 30.5725ZM61.3699 29.6134C61.7678 29.4701 62.075 29.2712 62.2916 29.0167C62.511 28.7611 62.6459 28.4846 62.6962 28.1872C62.7493 27.8888 62.7268 27.6032 62.6286 27.3303L62.2972 26.4094C62.273 26.4759 62.1961 26.5566 62.0665 26.6514C61.9387 26.7424 61.7866 26.8372 61.6103 26.936C61.4358 27.031 61.2645 27.1215 61.0965 27.2077C60.9303 27.29 60.7958 27.3577 60.6929 27.4108C60.4437 27.539 60.2192 27.6825 60.0194 27.841C59.8215 27.9958 59.68 28.1735 59.595 28.3743C59.5117 28.5712 59.5161 28.7976 59.6082 29.0534C59.734 29.4029 59.9584 29.6207 60.2814 29.7067C60.6063 29.7887 60.9691 29.7577 61.3699 29.6134Z" fill="white"/>
<path d="M66.4439 28.767L64.9903 21.9609L66.036 21.7375L66.6682 24.6974L67.3594 24.5497L69.1731 21.0672L70.5201 20.7793L68.4732 24.6453L72.0091 27.5778L70.6621 27.8657L67.8157 25.4715L66.8764 25.6723L67.4896 28.5436L66.4439 28.767Z" fill="white"/>
<path d="M72.5008 21.4917L72.4213 20.498L78.0578 20.0468L78.1373 21.0404L75.861 21.2227L76.3366 27.1665L75.2708 27.2519L74.7952 21.308L72.5008 21.4917Z" fill="white"/>
<path d="M81.5553 25.4329L85.247 20.2766L86.4768 20.3558L86.0296 27.3013L84.9626 27.2325L85.3085 21.8607L81.6348 27.0181L80.3869 26.9378L80.8341 19.9923L81.9012 20.0611L81.5553 25.4329Z" fill="white"/>
<path d="M88.1324 27.5791L89.5317 20.7614L90.5791 20.9764L89.9705 23.9415L90.6629 24.0836L93.7212 21.6216L95.0704 21.8987L91.6447 24.6183L93.7067 28.7237L92.3575 28.4467L90.711 25.1112L89.7701 24.918L89.1798 27.7942L88.1324 27.5791Z" fill="white"/>
<path d="M94.8122 31.8039C94.6413 31.7437 94.4939 31.6757 94.37 31.6001C94.2452 31.5273 94.1616 31.469 94.1194 31.4253L94.6888 30.6266C94.9117 30.7756 95.1202 30.8747 95.3142 30.9238C95.5083 30.973 95.7045 30.9476 95.903 30.8478C96.1033 30.7518 96.3234 30.5587 96.5633 30.2685L96.9319 29.8218L96.8282 22.3677L97.9221 22.7531L97.892 28.6228L97.9604 28.6468L101.614 24.0537L102.708 24.4391L97.2735 30.9799C97.0287 31.2748 96.7746 31.5007 96.5112 31.6578C96.2468 31.8176 95.973 31.9085 95.6899 31.9305C95.4096 31.9535 95.1171 31.9113 94.8122 31.8039Z" fill="white"/>
<path d="M106.382 29.5699L105.908 30.4471L102.672 28.6983L103.145 27.8212L106.382 29.5699ZM105.389 25.5726L102.082 31.6967L101.142 31.1884L104.449 25.0644L105.389 25.5726ZM106.334 34.1588C105.782 33.8602 105.368 33.4666 105.093 32.978C104.82 32.4909 104.695 31.9476 104.716 31.3481C104.741 30.7501 104.924 30.1348 105.265 29.5022C105.61 28.8643 106.026 28.3699 106.514 28.019C107.005 27.6696 107.529 27.4753 108.085 27.4361C108.645 27.3984 109.201 27.5288 109.753 27.8275C110.306 28.1261 110.719 28.519 110.991 29.0061C111.266 29.4946 111.391 30.0393 111.365 30.64C111.342 31.2421 111.158 31.8621 110.814 32.5C110.472 33.1326 110.057 33.6223 109.567 33.9691C109.081 34.3173 108.558 34.5103 107.998 34.548C107.442 34.5872 106.887 34.4575 106.334 34.1588ZM106.791 33.3136C107.211 33.5404 107.614 33.6194 108.002 33.5506C108.389 33.4817 108.742 33.307 109.062 33.0265C109.382 32.746 109.652 32.4011 109.873 31.9918C110.094 31.5825 110.235 31.1659 110.296 30.742C110.356 30.3181 110.31 29.924 110.157 29.5596C110.003 29.1952 109.717 28.8995 109.297 28.6727C108.877 28.4458 108.473 28.3682 108.084 28.4397C107.695 28.5112 107.34 28.6885 107.019 28.9717C106.698 29.2549 106.427 29.6011 106.206 30.0104C105.985 30.4198 105.845 30.835 105.786 31.2563C105.726 31.6775 105.774 32.0689 105.929 32.4307C106.084 32.7924 106.371 33.0867 106.791 33.3136Z" fill="white"/>
<path d="M118.184 41.4816L116.187 43.7112L115.333 43.009L116.599 41.4688L115.9 40.8932L116.533 40.1232L118.184 41.4816ZM114.637 30.843L115.463 31.5222L111.676 36.1285L113.705 37.7978L117.492 33.1914L118.318 33.8706L114.531 38.477L116.561 40.1462L120.347 35.5398L121.173 36.219L116.753 41.5955L110.217 36.2194L114.637 30.843Z" fill="white"/>
<path d="M120.16 42.9612L126.428 41.9981L127.23 42.9332L121.95 47.4677L121.254 46.6564L125.338 43.1492L119.082 44.1261L118.268 43.1773L123.548 38.6427L124.244 39.4541L120.16 42.9612Z" fill="white"/>
<path d="M126.464 51.5659L132.432 50.767L132.961 51.6333L125.454 52.6928L125 51.9503L129.401 45.8015L129.92 46.6523L126.464 51.5659ZM129.741 46.3584L123.801 49.9858L123.244 49.0731L129.184 45.4457L129.741 46.3584ZM126.653 54.6574L132.593 51.03L133.15 51.9427L127.21 55.5701L126.653 54.6574Z" fill="white"/>
<path d="M129.736 57.3916L135.986 58.4595L136.452 59.6004L130.01 62.2329L129.605 61.243L134.588 59.2069L128.345 58.1558L127.872 56.9981L134.314 54.3656L134.719 55.3555L129.736 57.3916Z" fill="white"/>
<path d="M129.223 68.9838C129.191 68.8055 129.177 68.6438 129.181 68.4987C129.183 68.3542 129.192 68.2527 129.209 68.1944L130.185 68.2934C130.166 68.5609 130.183 68.7911 130.236 68.984C130.29 69.1769 130.409 69.3349 130.594 69.4578C130.777 69.5843 131.053 69.6799 131.424 69.7445L131.995 69.8435L138.418 66.061L138.625 67.2023L133.512 70.0837L133.525 70.155L139.325 71.0541L139.532 72.1954L131.158 70.7139C130.781 70.6473 130.459 70.5385 130.192 70.3875C129.922 70.2369 129.707 70.0441 129.548 69.809C129.389 69.5769 129.281 69.3019 129.223 68.9838Z" fill="white"/>
<path d="M130.249 74.954L139.811 74.5912L139.85 75.6236L138.746 75.6655L138.75 75.7922C138.874 75.8661 139.032 75.969 139.225 76.1007C139.42 76.2354 139.597 76.4312 139.755 76.6882C139.916 76.9481 140.005 77.3045 140.022 77.7573C140.044 78.3429 139.917 78.8646 139.641 79.3224C139.366 79.7803 138.964 80.1447 138.436 80.4156C137.908 80.6865 137.279 80.8358 136.549 80.8635C135.812 80.8915 135.169 80.7904 134.619 80.5604C134.073 80.3302 133.643 79.9989 133.33 79.5664C133.021 79.1338 132.855 78.6277 132.833 78.0481C132.816 77.6014 132.876 77.2409 133.014 76.9666C133.155 76.6922 133.317 76.479 133.502 76.3269C133.69 76.1747 133.845 76.0569 133.969 75.9736L133.966 75.8831L130.289 76.0225L130.249 74.954ZM136.374 75.7736C135.849 75.7935 135.388 75.888 134.993 76.0572C134.6 76.2263 134.296 76.463 134.081 76.7674C133.869 77.0717 133.771 77.4382 133.787 77.8668C133.804 78.3135 133.936 78.6819 134.183 78.9718C134.433 79.2646 134.761 79.4788 135.168 79.6145C135.579 79.7531 136.031 79.8131 136.526 79.7943C137.015 79.7757 137.453 79.6835 137.84 79.5177C138.23 79.3548 138.533 79.1181 138.751 78.8075C138.972 78.4999 139.074 78.1197 139.057 77.6669C139.041 77.2322 138.917 76.8712 138.685 76.5837C138.457 76.2961 138.143 76.0843 137.745 75.9483C137.35 75.8121 136.893 75.7539 136.374 75.7736Z" fill="white"/>
<path d="M132.594 85.3655C132.662 84.741 132.871 84.2093 133.22 83.7705C133.569 83.3347 134.025 83.0141 134.588 82.8085C135.151 82.606 135.79 82.544 136.505 82.6225C137.225 82.7016 137.84 82.9013 138.349 83.2216C138.857 83.5448 139.234 83.957 139.48 84.4581C139.726 84.9622 139.814 85.5265 139.745 86.151C139.677 86.7756 139.468 87.3058 139.12 87.7416C138.771 88.1803 138.313 88.5008 137.747 88.703C137.18 88.9082 136.537 88.9713 135.816 88.8921C135.102 88.8137 134.492 88.6129 133.986 88.29C133.481 87.9701 133.105 87.5581 132.859 87.054C132.614 86.5529 132.525 85.9901 132.594 85.3655ZM133.548 85.4704C133.496 85.9448 133.575 86.3485 133.785 86.6815C133.994 87.0145 134.289 87.2763 134.669 87.467C135.049 87.6577 135.471 87.7784 135.933 87.8292C136.395 87.88 136.834 87.8537 137.25 87.7504C137.665 87.6472 138.013 87.4559 138.293 87.1767C138.573 86.8974 138.739 86.5206 138.791 86.0462C138.843 85.5717 138.762 85.1679 138.55 84.8346C138.337 84.5012 138.039 84.2391 137.656 84.0481C137.273 83.8571 136.85 83.7362 136.388 83.6854C135.926 83.6346 135.488 83.661 135.076 83.7647C134.663 83.8683 134.319 84.0598 134.042 84.3394C133.765 84.619 133.6 84.996 133.548 85.4704Z" fill="white"/>
<path d="M132.233 89.7664L133.197 90.0207L133.132 90.266C133.079 90.4676 133.074 90.646 133.117 90.8011C133.164 90.9571 133.277 91.1025 133.457 91.2374C133.639 91.3761 133.905 91.5151 134.256 91.6544C134.609 91.7975 135.064 91.9536 135.622 92.1227L138.569 93.0313L137.386 97.5179L130.657 95.7427L130.93 94.7087L136.695 96.2296L137.346 93.7585L134.974 93.02C134.428 92.851 133.955 92.6731 133.554 92.4862C133.156 92.303 132.835 92.0981 132.592 91.8714C132.348 91.6477 132.187 91.3929 132.109 91.1068C132.031 90.8208 132.042 90.4908 132.141 90.1169L132.233 89.7664Z" fill="white"/>
<path d="M128.744 100.392C128.991 99.8144 129.345 99.3664 129.807 99.048C130.267 98.7324 130.797 98.5582 131.395 98.5253C131.993 98.4952 132.622 98.6216 133.283 98.9045C133.95 99.1897 134.48 99.5595 134.873 100.014C135.266 100.471 135.507 100.975 135.596 101.526C135.685 102.08 135.605 102.645 135.358 103.223C135.111 103.801 134.757 104.247 134.297 104.563C133.836 104.881 133.305 105.055 132.704 105.084C132.103 105.116 131.469 104.989 130.802 104.704C130.141 104.421 129.616 104.051 129.226 103.595C128.836 103.142 128.596 102.639 128.508 102.085C128.418 101.534 128.497 100.97 128.744 100.392ZM129.627 100.77C129.439 101.209 129.397 101.618 129.501 101.998C129.605 102.377 129.811 102.713 130.119 103.006C130.427 103.299 130.795 103.537 131.223 103.72C131.651 103.903 132.078 104.006 132.506 104.028C132.933 104.05 133.321 103.968 133.67 103.782C134.019 103.596 134.287 103.284 134.475 102.845C134.663 102.406 134.704 101.997 134.597 101.616C134.49 101.235 134.282 100.898 133.971 100.603C133.659 100.309 133.29 100.071 132.863 99.8877C132.435 99.7046 132.009 99.6027 131.584 99.5819C131.159 99.5612 130.774 99.6443 130.428 99.8313C130.082 100.018 129.815 100.331 129.627 100.77Z" fill="white"/>
<path d="M130.712 112.004L129.851 111.502L131.476 108.715L126.326 105.711L126.864 104.787L132.875 108.294L130.712 112.004Z" fill="white"/>
<path d="M122.608 111.196C122.874 110.845 123.182 110.576 123.531 110.389C123.883 110.205 124.249 110.124 124.629 110.147C125.012 110.171 125.384 110.321 125.745 110.594C126.063 110.835 126.274 111.093 126.376 111.367C126.481 111.644 126.511 111.93 126.466 112.225C126.42 112.52 126.329 112.815 126.193 113.11C126.058 113.409 125.91 113.7 125.748 113.984C125.536 114.354 125.362 114.652 125.225 114.878C125.089 115.108 125.012 115.292 124.994 115.43C124.975 115.571 125.034 115.693 125.171 115.797L125.2 115.819C125.556 116.089 125.907 116.201 126.252 116.156C126.595 116.113 126.916 115.895 127.213 115.502C127.521 115.095 127.673 114.708 127.67 114.342C127.667 113.976 127.6 113.669 127.469 113.422L128.37 112.832C128.598 113.232 128.714 113.623 128.72 114.006C128.726 114.393 128.658 114.759 128.516 115.102C128.374 115.449 128.197 115.763 127.986 116.042C127.851 116.22 127.674 116.409 127.456 116.607C127.238 116.81 126.982 116.97 126.688 117.088C126.392 117.209 126.058 117.242 125.686 117.188C125.315 117.134 124.908 116.94 124.468 116.606L120.813 113.838L121.458 112.986L122.209 113.555L122.242 113.511C122.165 113.362 122.109 113.168 122.074 112.93C122.039 112.691 122.058 112.423 122.131 112.126C122.205 111.829 122.363 111.519 122.608 111.196ZM123.275 111.906C123.02 112.243 122.871 112.578 122.828 112.909C122.784 113.243 122.822 113.549 122.942 113.825C123.06 114.104 123.235 114.331 123.466 114.506L124.246 115.097C124.23 115.028 124.251 114.919 124.308 114.768C124.365 114.623 124.441 114.46 124.534 114.281C124.629 114.106 124.723 113.937 124.817 113.773C124.911 113.613 124.987 113.483 125.044 113.382C125.183 113.139 125.293 112.896 125.374 112.654C125.455 112.417 125.477 112.19 125.438 111.976C125.401 111.765 125.273 111.578 125.057 111.414C124.761 111.19 124.454 111.13 124.136 111.234C123.819 111.343 123.532 111.567 123.275 111.906Z" fill="white"/>
<path d="M117.951 118.989L120.035 124.638L119.306 125.344L116.63 118.249L117.256 117.644L124.216 120.593L123.5 121.286L117.951 118.989ZM123.748 121.046L118.91 116.043L119.678 115.3L124.516 120.303L123.748 121.046ZM114.976 119.849L119.814 124.852L119.045 125.596L114.207 120.593L114.976 119.849Z" fill="white"/>
<path d="M113.019 123.45L113.345 129.784L112.334 130.489L108.356 124.778L109.233 124.167L112.31 128.584L111.97 122.26L112.996 121.545L116.973 127.256L116.096 127.867L113.019 123.45Z" fill="white"/>
<path d="M98.4069 129.631L102.643 132.198L103.265 131.949L101.798 128.276L103.62 127.548L107.062 136.165L105.24 136.893L103.865 133.451L103.499 133.597L102.013 138.183L99.7455 139.089L101.51 133.748L96.1476 130.534L98.4069 129.631Z" fill="white"/>
<path d="M92.9608 131.164C93.3935 131.064 93.7964 131.051 94.1694 131.123C94.5432 131.198 94.8628 131.362 95.1283 131.614C95.3916 131.869 95.5747 132.221 95.6775 132.668C95.7641 133.045 95.7676 133.378 95.6881 133.666C95.6086 133.953 95.4675 134.203 95.2649 134.414C95.0623 134.625 94.8185 134.805 94.5336 134.954C94.2457 135.104 93.9377 135.233 93.6095 135.343C93.2245 135.475 92.9154 135.586 92.6821 135.677C92.4495 135.771 92.2872 135.867 92.1952 135.966C92.1031 136.064 92.0737 136.186 92.1069 136.33L92.1129 136.356C92.1772 136.636 92.3152 136.832 92.527 136.945C92.7359 137.058 93.0008 137.077 93.3216 137.004C93.6602 136.926 93.9123 136.789 94.078 136.593C94.2443 136.399 94.3342 136.184 94.3476 135.945L96.1198 135.686C96.1262 136.119 96.0344 136.515 95.8443 136.875C95.6549 137.238 95.3742 137.547 95.0022 137.803C94.628 138.062 94.17 138.255 93.6283 138.379C93.2515 138.466 92.8808 138.504 92.516 138.495C92.1484 138.487 91.8093 138.421 91.4988 138.297C91.1853 138.174 90.9171 137.984 90.6941 137.729C90.4718 137.476 90.3144 137.148 90.2217 136.745L89.1706 132.17L90.9545 131.76L91.1706 132.7L91.2236 132.688C91.2839 132.451 91.3866 132.231 91.5319 132.027C91.6779 131.826 91.8685 131.65 92.1037 131.5C92.3395 131.353 92.6252 131.241 92.9608 131.164ZM92.7203 132.586C92.4436 132.649 92.2118 132.76 92.0249 132.918C91.8386 133.078 91.7068 133.267 91.6294 133.483C91.552 133.699 91.5407 133.926 91.5954 134.165L91.7608 134.884C91.8109 134.833 91.8837 134.779 91.9793 134.723C92.0727 134.67 92.1796 134.616 92.3001 134.561C92.4212 134.508 92.5428 134.457 92.6646 134.407C92.7871 134.36 92.8982 134.318 92.9979 134.279C93.2112 134.196 93.3922 134.1 93.5408 133.992C93.6895 133.883 93.7955 133.758 93.8591 133.616C93.9233 133.478 93.9351 133.32 93.8945 133.143C93.8356 132.887 93.6979 132.713 93.4814 132.62C93.2625 132.531 93.0088 132.519 92.7203 132.586Z" fill="white"/>
<path d="M88.3858 134.326L86.5223 134.497C86.4924 134.269 86.3736 134.098 86.1659 133.983C85.9583 133.869 85.6996 133.826 85.3897 133.854C85.0769 133.883 84.8203 133.979 84.62 134.143C84.4199 134.31 84.3324 134.53 84.3575 134.804C84.3729 134.973 84.4284 135.115 84.5239 135.23C84.6197 135.349 84.7461 135.437 84.9031 135.496C85.0601 135.554 85.2379 135.574 85.4364 135.556L86.4335 135.465L86.5488 136.724L85.5517 136.815C85.2539 136.842 85.0316 136.932 84.8849 137.085C84.7351 137.239 84.6697 137.419 84.6887 137.627C84.7102 137.861 84.8117 138.041 84.9931 138.167C85.1717 138.297 85.4024 138.348 85.6852 138.322C85.9709 138.296 86.2026 138.21 86.3803 138.063C86.5552 137.92 86.6363 137.745 86.6236 137.54L88.478 137.37C88.51 137.786 88.4181 138.157 88.2023 138.483C87.9835 138.81 87.6741 139.074 87.2741 139.278C86.8712 139.482 86.411 139.607 85.8936 139.655C85.3281 139.707 84.8335 139.671 84.4099 139.549C83.9834 139.431 83.6471 139.236 83.4008 138.964C83.1515 138.693 83.0084 138.355 82.9715 137.952C82.9378 137.585 83.0301 137.267 83.2481 136.999C83.4662 136.73 83.7869 136.523 84.2104 136.378L84.2038 136.306C83.9164 136.314 83.6507 136.261 83.4067 136.147C83.1627 136.033 82.9606 135.863 82.8005 135.638C82.6406 135.416 82.546 135.144 82.5165 134.823C82.4771 134.392 82.5697 134.012 82.7943 133.682C83.0158 133.353 83.3401 133.085 83.7672 132.879C84.1914 132.676 84.6878 132.549 85.2563 132.497C85.8098 132.446 86.3134 132.48 86.7672 132.599C87.2182 132.722 87.5874 132.928 87.8747 133.217C88.1591 133.506 88.3294 133.876 88.3858 134.326Z" fill="white"/>
<path d="M78.964 132.757C79.4076 132.776 79.7998 132.869 80.1404 133.038C80.4809 133.209 80.7459 133.451 80.9354 133.765C81.1217 134.081 81.2053 134.468 81.1862 134.927C81.1701 135.313 81.0856 135.635 80.9328 135.892C80.78 136.148 80.5781 136.351 80.327 136.501C80.0758 136.651 79.7932 136.76 79.4789 136.829C79.1617 136.897 78.8303 136.941 78.4849 136.959C78.0787 136.985 77.7512 137.01 77.5022 137.036C77.2531 137.065 77.0711 137.115 76.9563 137.186C76.8415 137.257 76.781 137.366 76.7749 137.514L76.7737 137.541C76.7618 137.828 76.843 138.053 77.0176 138.218C77.1891 138.382 77.4393 138.471 77.7683 138.485C78.1153 138.499 78.3947 138.434 78.6063 138.289C78.8178 138.146 78.9615 137.962 79.0375 137.735L80.815 137.955C80.7069 138.373 80.5136 138.731 80.2352 139.028C79.9566 139.328 79.6042 139.552 79.1777 139.7C78.7482 139.852 78.2558 139.916 77.7005 139.893C77.3142 139.876 76.9464 139.816 76.5971 139.71C76.2447 139.605 75.9352 139.452 75.6685 139.25C75.3988 139.048 75.1902 138.795 75.0427 138.489C74.8951 138.187 74.8299 137.829 74.8472 137.415L75.0428 132.725L76.8717 132.801L76.8314 133.766L76.8858 133.768C77.0065 133.555 77.1639 133.37 77.3579 133.212C77.5518 133.057 77.782 132.938 78.0485 132.855C78.3148 132.776 78.62 132.743 78.964 132.757ZM78.3562 134.065C78.0725 134.053 77.8197 134.099 77.5978 134.201C77.3757 134.307 77.1988 134.454 77.067 134.642C76.9352 134.83 76.8642 135.046 76.854 135.29L76.8232 136.028C76.8852 135.992 76.9697 135.959 77.0767 135.93C77.1806 135.904 77.298 135.88 77.4289 135.859C77.5597 135.84 77.6904 135.823 77.821 135.807C77.9515 135.794 78.0699 135.783 78.1762 135.772C78.4039 135.748 78.6038 135.704 78.7758 135.638C78.9478 135.573 79.0832 135.48 79.1819 135.36C79.2805 135.244 79.3336 135.095 79.3411 134.914C79.3521 134.651 79.2654 134.446 79.0811 134.3C78.8936 134.156 78.652 134.078 78.3562 134.065Z" fill="white"/>
<path d="M71.0197 139.172L70.189 136.552L68.4729 138.718L66.5237 138.37L69.1194 135.298L67.692 131.509L69.6322 131.855L70.5613 134.464L72.3128 132.333L74.2754 132.683L71.6306 135.746L72.9822 139.522L71.0197 139.172Z" fill="white"/>
<path d="M63.9609 130.215C64.6383 130.437 65.1739 130.772 65.5678 131.219C65.9579 131.668 66.1993 132.192 66.2922 132.791C66.3822 133.39 66.3176 134.024 66.0985 134.692C65.8766 135.37 65.5513 135.921 65.1227 136.347C64.6903 136.774 64.1846 137.052 63.6054 137.18C63.0254 137.311 62.401 137.267 61.7322 137.047C61.1553 136.858 60.6845 136.588 60.3197 136.236C59.955 135.885 59.7084 135.478 59.5799 135.016C59.4515 134.555 59.4581 134.064 59.5996 133.545L61.3304 134.112C61.271 134.458 61.3132 134.766 61.4569 135.036C61.5968 135.307 61.8346 135.498 62.1704 135.608C62.4546 135.701 62.7282 135.705 62.9914 135.62C63.2508 135.536 63.4873 135.367 63.7009 135.113C63.9145 134.859 64.0895 134.524 64.2258 134.107C64.3641 133.685 64.4242 133.308 64.4063 132.974C64.3855 132.64 64.2942 132.361 64.1326 132.136C63.971 131.911 63.7481 131.753 63.464 131.659C63.2545 131.591 63.0524 131.572 62.8577 131.604C62.6601 131.634 62.48 131.714 62.3173 131.841C62.1508 131.971 62.0123 132.147 61.9017 132.368L60.1709 131.801C60.3652 131.305 60.6487 130.905 61.0216 130.601C61.3906 130.3 61.8257 130.112 62.3267 130.037C62.8278 129.963 63.3725 130.022 63.9609 130.215Z" fill="white"/>
<path d="M57.5352 133.885L56.8679 135.248L51.2039 132.475L51.8712 131.111L53.8854 132.098L56.2778 127.21L57.9298 128.019L55.5374 132.907L57.5352 133.885Z" fill="white"/>
<path d="M51.5527 124.362C51.9217 124.609 52.2077 124.893 52.4107 125.214C52.612 125.538 52.7119 125.883 52.7104 126.249C52.7047 126.616 52.5742 126.99 52.3189 127.372C52.1039 127.693 51.8643 127.924 51.6002 128.063C51.3361 128.203 51.0579 128.271 50.7656 128.268C50.4732 128.265 50.1751 128.211 49.8712 128.106C49.5648 127.999 49.2593 127.863 48.9547 127.699C48.5948 127.509 48.3019 127.361 48.0759 127.253C47.8483 127.148 47.667 127.096 47.5321 127.096C47.3973 127.097 47.2887 127.159 47.2064 127.282L47.1913 127.304C47.0317 127.543 46.9835 127.778 47.0468 128.009C47.1075 128.239 47.2747 128.445 47.5483 128.628C47.837 128.821 48.1095 128.911 48.3658 128.897C48.6205 128.886 48.8393 128.803 49.0221 128.65L50.4249 129.763C50.1145 130.064 49.7631 130.269 49.3709 130.377C48.977 130.488 48.5594 130.496 48.1181 130.4C47.6727 130.305 47.219 130.104 46.7572 129.794C46.4359 129.579 46.1536 129.336 45.9103 129.064C45.6645 128.79 45.4803 128.498 45.3578 128.187C45.2327 127.874 45.1867 127.549 45.22 127.212C45.2516 126.876 45.3824 126.537 45.6126 126.193L48.2229 122.291L49.744 123.309L49.2073 124.112L49.2525 124.142C49.4663 124.023 49.6972 123.947 49.9452 123.913C50.1915 123.882 50.4499 123.9 50.7204 123.968C50.9891 124.039 51.2666 124.17 51.5527 124.362ZM50.3526 125.162C50.1167 125.004 49.8773 124.911 49.6344 124.883C49.3898 124.857 49.1624 124.89 48.9519 124.982C48.7415 125.074 48.5683 125.221 48.4322 125.425L48.0215 126.039C48.0936 126.04 48.1828 126.056 48.2891 126.087C48.3912 126.119 48.5038 126.16 48.6269 126.209C48.7482 126.262 48.8688 126.315 48.9884 126.37C49.1065 126.427 49.2136 126.479 49.3098 126.525C49.5166 126.623 49.7104 126.689 49.8912 126.723C50.0721 126.757 50.2359 126.748 50.3826 126.698C50.5276 126.649 50.6505 126.55 50.7513 126.399C50.8974 126.181 50.93 125.961 50.8492 125.739C50.7641 125.519 50.5986 125.326 50.3526 125.162Z" fill="white"/>
<path d="M40.911 121.605L41.9213 120.472L44.6325 122.891L43.6221 124.024L40.911 121.605ZM41.3452 125.624L45.9779 120.43L47.3537 121.657L42.721 126.852L41.3452 125.624ZM38.2048 122.821L42.8375 117.627L44.2032 118.846L39.5705 124.04L38.2048 122.821Z" fill="white"/>
<path d="M40.4247 114.792C40.7114 115.131 40.9081 115.483 41.0147 115.848C41.1191 116.214 41.1201 116.574 41.0179 116.925C40.9114 117.276 40.6828 117.6 40.3323 117.897C40.0371 118.147 39.7433 118.302 39.451 118.363C39.1587 118.425 38.8725 118.414 38.5923 118.33C38.3121 118.247 38.0404 118.113 37.7773 117.928C37.5122 117.741 37.2558 117.526 37.0081 117.285C36.7145 117.003 36.4739 116.779 36.2863 116.614C36.0964 116.45 35.9365 116.35 35.8067 116.313C35.6769 116.277 35.5555 116.306 35.4425 116.402L35.4217 116.419C35.2026 116.605 35.0916 116.817 35.0887 117.057C35.0838 117.295 35.1877 117.539 35.4003 117.79C35.6246 118.056 35.8618 118.217 36.1121 118.274C36.36 118.334 36.593 118.315 36.8112 118.217L37.8531 119.674C37.4717 119.878 37.0776 119.978 36.6708 119.974C36.2616 119.972 35.8581 119.864 35.4601 119.651C35.0579 119.437 34.6774 119.118 34.3186 118.694C34.069 118.398 33.8646 118.087 33.7056 117.758C33.5447 117.428 33.4481 117.096 33.416 116.763C33.3818 116.428 33.4272 116.103 33.5522 115.787C33.6748 115.474 33.8941 115.183 34.2101 114.916L37.7939 111.884L38.9758 113.282L38.239 113.905L38.2741 113.947C38.5123 113.892 38.7553 113.882 39.003 113.918C39.2485 113.955 39.4918 114.044 39.7329 114.184C39.9718 114.327 40.2024 114.529 40.4247 114.792ZM39.0508 115.23C38.8675 115.014 38.6629 114.858 38.4372 114.764C38.2091 114.672 37.9813 114.642 37.7538 114.672C37.5262 114.702 37.319 114.796 37.1322 114.954L36.5683 115.431C36.6373 115.452 36.7186 115.492 36.8123 115.552C36.9016 115.61 36.9986 115.681 37.1032 115.762C37.2056 115.846 37.3067 115.93 37.4067 116.016C37.5044 116.103 37.5932 116.183 37.6729 116.254C37.8446 116.405 38.0127 116.522 38.1772 116.604C38.3418 116.687 38.5016 116.724 38.6566 116.715C38.8093 116.709 38.9549 116.647 39.0932 116.53C39.2939 116.36 39.3858 116.158 39.369 115.923C39.348 115.687 39.2419 115.456 39.0508 115.23Z" fill="white"/>
<path d="M30.349 104.406C30.5286 104.725 30.6151 105.059 30.6084 105.41C30.5991 105.762 30.5074 106.091 30.3335 106.398C30.1581 106.701 29.9112 106.943 29.593 107.123C29.2721 107.304 28.9376 107.39 28.5896 107.382C28.2375 107.373 27.9096 107.281 27.606 107.105C27.2997 106.931 27.0567 106.685 26.877 106.367C26.6959 106.046 26.6107 105.711 26.6216 105.361C26.6283 105.011 26.7193 104.683 26.8947 104.38C27.0661 104.075 27.3122 103.832 27.633 103.651C27.9513 103.471 28.2865 103.386 28.6386 103.395C28.9892 103.402 29.3177 103.492 29.624 103.666C29.9262 103.839 30.1678 104.085 30.349 104.406Z" fill="white"/>
</svg>
